# xmcd
#
# Track frame offsets:
#	150
#	20173
#	33141
#	41908
#	58478
#	70402
#	79498
#	89032
#	98834
#	112370
#	123578
#	135318
#	146764
#
# Disc length: 2206 seconds
#
# Revision: 0
# Processed by: cddbd v1.4PL0 Copyright (c) Steve Scherf et al.
# Submitted via: audiograbber 1.82.00
#
DISCID=ce089c0d
DTITLE=Hain Brothers - Weihnachtslieder
DYEAR=1900
DGENRE=Bluegrass
TTITLE0=Welch ein Jubel, welche Freude
TTITLE1=Leise rieselt der Schnee
TTITLE2=Rudolph, the red nosed reindeer
TTITLE3=Süßer die Glocken nie klingen
TTITLE4=Stille Nacht
TTITLE5=Engel bringen frohe Kunde
TTITLE6=Geh, ruf es von den Bergen
TTITLE7=Jingle Bells
TTITLE8=Schneeflöckchen, Weißröckchen
TTITLE9=Lasst uns froh und munter sein
TTITLE10=Mit den Hirten will ich gehen
TTITLE11=Fröhliche Weihnacht überall
TTITLE12=Silversterabend
EXTD=
EXTT0=
EXTT1=
EXTT2=
EXTT3=
EXTT4=
EXTT5=
EXTT6=
EXTT7=
EXTT8=
EXTT9=
EXTT10=
EXTT11=
EXTT12=
PLAYORDER=
